<?xml version="1.0" encoding="utf-8"?>
<!-- Generator: Adobe Illustrator 16.0.0, SVG Export Plug-In . SVG Version: 6.00 Build 0)  -->
<!DOCTYPE svg PUBLIC "-//W3C//DTD SVG 1.1//EN" "http://www.w3.org/Graphics/SVG/1.1/DTD/svg11.dtd">
<svg version="1.1" id="Layer_1" xmlns="http://www.w3.org/2000/svg" xmlns:xlink="http://www.w3.org/1999/xlink" x="0px" y="0px"
	 width="319px" height="130.668px" viewBox="-219 -60.45 319 130.668" enable-background="new -219 -60.45 319 130.668"
	 xml:space="preserve">
<path d="M19.776,0v42.333h63.66V0 M22.505,2.819h58.203v33.467H22.505V2.819z"/>
<path d="M83.436,43.514h-63.66L9.318,53.518h42.288h42.289L83.436,43.514z"/>
<path d="M7.5,56.112c0-0.754,0-1.015,0-1.363h88.213c0,0.609,0,0.609,0,1.363l0,0c0,0.754,0.017,1.001,0.017,1.363H7.5"/>
<g>
	<path d="M60.275,4.69h-34.05v19.789H60.48V4.69H60.275z M59.5,7.894c0,0.202-0.061,15.68-0.061,15.882c-0.416,0-31.757,0-32.173,0
		c0-0.202-0.014-15.681-0.014-15.882C27.668,7.894,59.086,7.894,59.5,7.894z M59.439,5.407c0,0.243,0,1.536,0,1.777
		c-0.416,0-31.757,0-32.173,0c0-0.241,0-1.534,0-1.777C27.682,5.407,59.023,5.407,59.439,5.407z"/>
	<rect x="50.319" y="5.597" width="1.947" height="1.126"/>
	<rect x="53.455" y="5.597" width="1.945" height="1.126"/>
	<rect x="56.588" y="5.597" width="1.947" height="1.126"/>
</g>
<rect x="30.248" y="17.824" fill="none" stroke="#000000" stroke-width="0.7" stroke-miterlimit="10" width="9.654" height="3.771"/>
<path fill="none" stroke="#231F20" stroke-width="0.7" stroke-miterlimit="10" d="M30.248,11.22c0,0,3.345,1.506,6.02,0
	c2.675-1.505,7.243-0.083,7.085,0.335c-0.157,0.418,3.959,0.842,5.605-0.338c1.647-1.18,5.469,0.048,5.469,0.048"/>
<path fill="none" stroke="#231F20" stroke-width="0.7" stroke-miterlimit="10" d="M30.248,13.818c0,0,3.345,1.506,6.02,0
	c2.675-1.505,7.243-0.083,7.085,0.335c-0.157,0.418,3.959,0.842,5.605-0.338c1.647-1.18,5.469,0.048,5.469,0.048"/>
<path fill="none" stroke="#231F20" stroke-width="0.6" stroke-miterlimit="10" d="M32.263,19.71c0,0,1.562,1.71,2.812,0
	c1.251-1.709,3.387-0.095,3.312,0.38c-0.018,0.117,0.085,0.234,0.262,0.324"/>
<g>
	<polygon fill="#231F20" points="35.406,19.527 35.39,27.947 37.427,26.531 38.385,29.049 39.291,28.699 38.281,26.149 
		40.977,26.171 	"/>
	<polygon fill="#FAA92B" points="35.937,20.945 35.875,26.824 37.458,25.663 38.484,28.484 38.771,28.364 37.76,25.512 
		39.418,25.405 	"/>
</g>
<path d="M-213.338,42.922l80.953,0.205v8.266c-17.914,1.766-28.303,3.854-28.303,4.645c0,0.321-0.275,2.184,0.016,3.746h87.276
	c0.291-1.562,0-4.575,0-4.897c0,0-8.6-1.544-27.284-3.493v-8.266l80.679-0.205c0-1.881,0-1.881,0-7.701v-89.663
	c-4.15,0-4.15,0-12.324,0h-170.073c-8.162,0-5.745-0.038-10.94,0 M-26.5,29.05c0,4.989-8.478,8.833-13.333,8.833h-154.333
	c-4.616,0-13.667-4.831-13.667-9.827v-68.172c0-4.973,7.571-10.333,13.333-10.333h154.667c7.075,0,13.333,6.051,13.333,9.667V29.05z
	"/>
<g>
	<g>
		<path d="M-67.35-34.572h-34.05v19.789h34.255v-19.789H-67.35z M-68.126-31.367c0,0.202-0.06,15.68-0.06,15.882
			c-0.416,0-31.758,0-32.173,0c0-0.202-0.014-15.681-0.014-15.882C-99.958-31.367-68.541-31.367-68.126-31.367z M-68.186-33.854
			c0,0.243,0,1.536,0,1.777c-0.416,0-31.758,0-32.173,0c0-0.241,0-1.534,0-1.777C-99.944-33.854-68.602-33.854-68.186-33.854z"/>
		<rect x="-77.307" y="-33.664" width="1.947" height="1.126"/>
		<rect x="-74.171" y="-33.664" width="1.946" height="1.126"/>
		<rect x="-71.038" y="-33.664" width="1.947" height="1.126"/>
	</g>
	
		<rect x="-97.378" y="-21.437" fill="none" stroke="#000000" stroke-width="0.7" stroke-miterlimit="10" width="9.654" height="3.771"/>
	<path fill="none" stroke="#231F20" stroke-width="0.7" stroke-miterlimit="10" d="M-97.378-28.041c0,0,3.345,1.506,6.02,0
		c2.675-1.506,7.243-0.084,7.085,0.335c-0.157,0.418,3.959,0.842,5.605-0.338c1.647-1.18,5.469,0.048,5.469,0.048"/>
	<path fill="none" stroke="#231F20" stroke-width="0.7" stroke-miterlimit="10" d="M-97.378-25.443c0,0,3.345,1.506,6.02,0
		c2.675-1.506,7.243-0.084,7.085,0.335c-0.157,0.418,3.959,0.842,5.605-0.338c1.647-1.181,5.469,0.048,5.469,0.048"/>
	<path fill="none" stroke="#231F20" stroke-width="0.6" stroke-miterlimit="10" d="M-95.83-19.603c0,0,1.562,1.711,2.812,0
		c1.251-1.709,3.387-0.094,3.312,0.381c-0.018,0.116,0.085,0.233,0.262,0.324"/>
	<g>
		<polygon fill="#231F20" points="-92.22,-19.734 -92.236,-11.314 -90.199,-12.73 -89.241,-10.213 -88.335,-10.562 -89.345,-13.113 
			-86.649,-13.09 		"/>
		<polygon fill="#FAA92B" points="-91.689,-18.316 -91.751,-12.437 -90.167,-13.598 -89.142,-10.777 -88.854,-10.898 
			-89.866,-13.75 -88.208,-13.856 		"/>
	</g>
</g>
<line x1="-196.026" y1="230.009" x2="-197.974" y2="230.009"/>
<line x1="-192.892" y1="230.009" x2="-194.838" y2="230.009"/>
<line x1="-189.757" y1="230.009" x2="-191.704" y2="230.009"/>
<g>
	<path d="M-43.602-43.768h-63.577v42.662h63.961v-42.662H-43.602z M-45.051-36.861c0,0.435-0.111,33.805-0.111,34.242
		c-0.775,0-59.297,0-60.073,0c0-0.437-0.026-33.807-0.026-34.242C-104.485-36.861-45.823-36.861-45.051-36.861z M-45.162-42.222
		c0,0.524,0,3.312,0,3.832c-0.775,0-59.297,0-60.073,0c0-0.52,0-3.307,0-3.832C-104.459-42.222-45.938-42.222-45.162-42.222z"/>
	<rect x="-62.192" y="-41.812" width="3.636" height="2.427"/>
	<rect x="-56.338" y="-41.812" width="3.635" height="2.427"/>
	<rect x="-50.486" y="-41.812" width="3.635" height="2.427"/>
</g>
<g>
	<g>
		<path d="M-157.226-39.409h-34.05v19.789h34.255v-19.789H-157.226z M-158.002-36.205c0,0.202-0.06,15.68-0.06,15.882
			c-0.416,0-31.758,0-32.173,0c0-0.202-0.014-15.681-0.014-15.882C-189.834-36.205-158.417-36.205-158.002-36.205z M-158.062-38.692
			c0,0.243,0,1.536,0,1.777c-0.416,0-31.758,0-32.173,0c0-0.241,0-1.534,0-1.777C-189.82-38.692-158.478-38.692-158.062-38.692z"/>
		<rect x="-167.183" y="-38.502" width="1.947" height="1.126"/>
		<rect x="-164.047" y="-38.502" width="1.946" height="1.126"/>
		<rect x="-160.914" y="-38.502" width="1.947" height="1.126"/>
	</g>
	
		<rect x="-187.254" y="-26.275" fill="none" stroke="#000000" stroke-width="0.7" stroke-miterlimit="10" width="9.654" height="3.771"/>
	<path fill="none" stroke="#231F20" stroke-width="0.7" stroke-miterlimit="10" d="M-187.254-32.879c0,0,3.345,1.506,6.02,0
		c2.675-1.506,7.243-0.084,7.085,0.335c-0.157,0.418,3.959,0.842,5.605-0.338c1.647-1.18,5.469,0.048,5.469,0.048"/>
	<path fill="none" stroke="#231F20" stroke-width="0.7" stroke-miterlimit="10" d="M-187.254-30.281c0,0,3.345,1.506,6.02,0
		c2.675-1.506,7.243-0.084,7.085,0.335c-0.157,0.418,3.959,0.842,5.605-0.338c1.647-1.181,5.469,0.048,5.469,0.048"/>
	<path fill="none" stroke="#231F20" stroke-width="0.6" stroke-miterlimit="10" d="M-185.706-24.441c0,0,1.562,1.711,2.812,0
		c1.251-1.709,3.387-0.094,3.312,0.381c-0.018,0.116,0.085,0.233,0.262,0.324"/>
	<g>
		<polygon fill="#231F20" points="-182.096,-24.572 -182.112,-16.152 -180.075,-17.568 -179.117,-15.051 -178.211,-15.4 
			-179.221,-17.951 -176.525,-17.927 		"/>
		<polygon fill="#FAA92B" points="-181.565,-23.154 -181.627,-17.275 -180.043,-18.436 -179.018,-15.615 -178.73,-15.736 
			-179.742,-18.588 -178.084,-18.694 		"/>
	</g>
</g>
<g>
	<path d="M-133.478-48.606h-63.577v42.662h63.961v-42.662H-133.478z M-134.927-41.699c0,0.435-0.111,33.805-0.111,34.242
		c-0.775,0-59.297,0-60.073,0c0-0.437-0.026-33.807-0.026-34.242C-194.361-41.699-135.699-41.699-134.927-41.699z M-135.038-47.06
		c0,0.524,0,3.312,0,3.832c-0.775,0-59.297,0-60.073,0c0-0.52,0-3.307,0-3.832C-194.335-47.06-135.813-47.06-135.038-47.06z"/>
	<rect x="-152.068" y="-46.65" width="3.636" height="2.427"/>
	<rect x="-146.214" y="-46.65" width="3.635" height="2.427"/>
	<rect x="-140.362" y="-46.65" width="3.635" height="2.427"/>
</g>
<g>
	<g>
		<path d="M-138.366-2.747h-34.05v19.789h34.255V-2.747H-138.366z M-139.142,0.457c0,0.202-0.06,15.68-0.06,15.882
			c-0.416,0-31.758,0-32.173,0c0-0.202-0.014-15.681-0.014-15.882C-170.974,0.457-139.556,0.457-139.142,0.457z M-139.202-2.03
			c0,0.243,0,1.536,0,1.777c-0.416,0-31.758,0-32.173,0c0-0.241,0-1.534,0-1.777C-170.959-2.03-139.618-2.03-139.202-2.03z"/>
		<rect x="-148.323" y="-1.84" width="1.947" height="1.126"/>
		<rect x="-145.187" y="-1.84" width="1.946" height="1.126"/>
		<rect x="-142.053" y="-1.84" width="1.947" height="1.126"/>
	</g>
	
		<rect x="-168.394" y="10.387" fill="none" stroke="#000000" stroke-width="0.7" stroke-miterlimit="10" width="9.654" height="3.771"/>
	<path fill="none" stroke="#231F20" stroke-width="0.7" stroke-miterlimit="10" d="M-168.394,3.784c0,0,3.345,1.506,6.02,0
		c2.675-1.506,7.243-0.084,7.085,0.335c-0.157,0.418,3.959,0.842,5.605-0.338c1.647-1.18,5.469,0.048,5.469,0.048"/>
	<path fill="none" stroke="#231F20" stroke-width="0.7" stroke-miterlimit="10" d="M-168.394,6.382c0,0,3.345,1.506,6.02,0
		c2.675-1.506,7.243-0.084,7.085,0.335c-0.157,0.418,3.959,0.842,5.605-0.338c1.647-1.181,5.469,0.048,5.469,0.048"/>
	<path fill="none" stroke="#231F20" stroke-width="0.6" stroke-miterlimit="10" d="M-166.845,12.221c0,0,1.562,1.711,2.812,0
		c1.251-1.709,3.387-0.094,3.312,0.381c-0.018,0.116,0.085,0.233,0.262,0.324"/>
	<g>
		<polygon fill="#231F20" points="-163.235,12.091 -163.252,20.51 -161.214,19.094 -160.256,21.612 -159.351,21.262 -160.36,18.712 
			-157.665,18.735 		"/>
		<polygon fill="#FAA92B" points="-162.705,13.509 -162.767,19.387 -161.183,18.226 -160.157,21.048 -159.87,20.927 
			-160.881,18.075 -159.224,17.969 		"/>
	</g>
</g>
<rect x="-177.6" y="-10.777" fill="#FFFFFF" width="62.475" height="4.833"/>
<g>
	<path d="M-114.617-11.944h-63.577v42.662h63.961v-42.662H-114.617z M-116.066-5.036c0,0.435-0.111,33.805-0.111,34.242
		c-0.775,0-59.297,0-60.073,0c0-0.437-0.026-33.807-0.026-34.242C-175.501-5.036-116.839-5.036-116.066-5.036z M-116.178-10.397
		c0,0.524,0,3.312,0,3.832c-0.775,0-59.297,0-60.073,0c0-0.52,0-3.307,0-3.832C-175.475-10.397-116.953-10.397-116.178-10.397z"/>
	<rect x="-133.208" y="-9.988" width="3.636" height="2.427"/>
	<rect x="-127.354" y="-9.988" width="3.635" height="2.427"/>
	<rect x="-121.502" y="-9.988" width="3.635" height="2.427"/>
</g>
<g>
	<circle fill="#FFFFFF" stroke="#000000" stroke-width="2" stroke-miterlimit="10" cx="-47.334" cy="0" r="11.659"/>
	<g>
		<path fill="#FAA82C" d="M-40.452,3.625c-0.856,0.168-1.762,0.134-2.297,0.134c-1.602,0-4.973,0-4.973,0V1.753
			c0,0,0.342-3.598,0.448-5.428c2.059-0.096,3.729-0.188,6.821,1.395"/>
		<path fill="#FAA82C" d="M-48.378,3.761v-2.08l0.292-2.494l-4.3-0.091c0,0-0.326,1.626-0.148,2.697
			c0.05,1.012,0.15,1.688,0.15,1.688L-48.378,3.761z"/>
		<path fill="#FAA82C" d="M-52.278-1.298l4.192,0.091l0.264-2.361c0,0-2.954-0.203-4.156,0.359
			C-52.278-2.479-52.278-1.298-52.278-1.298z"/>
	</g>
	<path d="M-40.452-4.753c-2.178-0.566-4.734-0.875-6.437-0.883c-1.176-0.005-3.104,0.436-4.638,0.854
		c-0.666,0.173-2.527,1.061-2.441,2.194c0.094,1.248,1.866,0.163,2.512,0.035c0.055-0.011,2.722-0.415,2.76-0.425
		c-0.909-0.047-6.027,2.247-4.954,3.503c0.767,0.898,3.314-0.506,3.314-0.506s2.076-0.267,3.161-0.272
		c1.475-0.008,2.024-0.21,3.539,0.272c2.628,0.838,3.528,0.715,2.269,1.471c-1.28,0.768-1.954,1.426-3.722,1.343
		c-1.674-0.079-4.346-0.169-3.333,1.276c1.484,0.975,5.146,1.132,7.971,1.055"/>
	<path fill="none" stroke="#FAA82C" stroke-miterlimit="10" d="M-53.261-1.332c-0.901-0.146-1.799,0.009-2.654,0.417"/>
</g>
<g>
	
		<ellipse fill="#FFFFFF" stroke="#000000" stroke-width="2" stroke-miterlimit="10" cx="76.194" cy="-3.605" rx="17.017" ry="10.831"/>
	<g>
		<path fill="#FAA82C" d="M68.501,0.61c0,0,0.124-1.156,0.162-1.743c0.83-0.033,1.485-0.067,2.88,0.654
			c1.106,1.827-0.673,1.731-1.25,1.731s-1.792,0-1.792,0V0.61z"/>
		<path fill="#FAA82C" d="M68.265,1.255V0.587l0.104-0.801L66.82-0.243c0,0-0.116,0.521-0.053,0.866
			c0.018,0.324,0.054,0.541,0.054,0.541L68.265,1.255z"/>
		<path fill="#FAA82C" d="M66.86-0.369l1.509,0.028l0.096-0.757c0,0-1.064-0.065-1.497,0.115C66.86-0.749,66.86-0.369,66.86-0.369z"
			/>
	</g>
	<g>
		<path fill="#FAA82C" d="M69.312-6.413c0,0,0.123-1.154,0.161-1.742c0.831-0.034,1.486-0.067,2.882,0.654
			c1.106,1.828-0.674,1.731-1.251,1.731s-1.792,0-1.792,0V-6.413z"/>
		<path fill="#FAA82C" d="M69.075-5.769v-0.667l0.105-0.801l-1.549-0.029c0,0-0.118,0.522-0.054,0.866
			c0.019,0.324,0.055,0.541,0.055,0.541L69.075-5.769z"/>
		<path fill="#FAA82C" d="M67.671-7.392l1.51,0.029l0.096-0.759c0,0-1.064-0.065-1.498,0.116
			C67.671-7.771,67.671-7.392,67.671-7.392z"/>
	</g>
	<path d="M87.537-6.443c-0.541-0.046-2.994,3.546-3.823,4.626c-1.335-0.219-7.576,0.872-7.576,0.872s-1.84-0.329-2.777-0.329
		c-0.686-0.433-2.525-0.505-3.523-0.541c-0.999-0.036-2.718,0.396-2.737,0.722c-0.021,0.324,0.716,0.199,0.886,0.148
		c-0.325,0.003-1.263,0.897-0.722,0.861s1.191-0.469,1.191-0.469s1.622,0.072,2.561,0.289c0.938,0.216,1.515,0.757,1.046,1.12
		C71.593,1.219,71.052,1,70.475,0.891s-1.552,0.036-1.19,0.482c0.829,0.447,3.571,0.131,4.076,0.022s1.876,0.216,1.876,0.216
		s8.369,0.758,9.956-0.36c1.252,0.032,2.356-1.881,2.356-1.881"/>
	<path d="M82.316-3.059c0.142-0.231-0.908-1.074-2.667-1.422c-2.617-0.868-3.339-1.188-3.57-1.38
		c-1.73-0.974-1.366-0.836-2.527-1.198c-0.526-0.616-2.262-1.232-3.204-1.563c-0.942-0.332-2.713-0.429-2.829-0.125
		c-0.106,0.28,0.515,0.387,0.752,0.403c0.02,0.001,1.151,0.201,1.166,0.201c-0.312-0.093-2.312-0.071-2.06,0.409
		c0.179,0.344,1.288,0.192,1.288,0.192s0.474-0.026,0.852,0.065c0.513,0.125,1.017,0.405,1.495,0.685
		c0.832,0.486,1.222,1.174,0.667,1.381c-0.557,0.207-1.007-0.164-1.526-0.438c-0.519-0.275-1.492-0.427-1.28,0.106
		c0.659,0.673,3.371,1.187,3.886,1.232c0.515,0.047,0.631,0.199,0.631,0.199c0.108,0.29,1.849,0.799,3.643,2.021
		C77.031-2.289,80.715-3.001,82.316-3.059z"/>
	<path fill="none" stroke="#FAA82C" stroke-width="0.5" stroke-miterlimit="10" d="M67.316-7.403
		c-1.342-0.196-2.663,1.267-2.954,3.27"/>
	<g>
		<path fill="#FAA82C" d="M75.333-9.422c0,0,0.123-1.155,0.161-1.742c0.83-0.034,1.485-0.067,2.881,0.653
			c1.106,1.828-0.674,1.732-1.251,1.732s-1.791,0-1.791,0V-9.422z"/>
		<path fill="#FAA82C" d="M75.097-8.779v-0.666l0.105-0.801l-1.549-0.029c0,0-0.118,0.521-0.054,0.865
			c0.018,0.324,0.054,0.542,0.054,0.542L75.097-8.779z"/>
		<path fill="#FAA82C" d="M73.691-10.402l1.511,0.029l0.095-0.758c0,0-1.065-0.064-1.497,0.115
			C73.691-10.781,73.691-10.402,73.691-10.402z"/>
	</g>
	<path d="M85.357-5.895c-0.415-0.272-1.412-1.127-1.845-1.4c-0.49-0.387-0.497-0.273-0.696-0.499
		c-1.559-1.229-1.22-1.037-2.312-1.574c-0.425-0.689-2.045-1.566-2.925-2.039c-0.881-0.473-2.613-0.842-2.775-0.56
		c-0.148,0.261,0.448,0.461,0.681,0.514c0.019,0.005,1.106,0.376,1.12,0.379c-0.293-0.14-2.272-0.427-2.098,0.087
		c0.124,0.367,1.243,0.389,1.243,0.389s0.472,0.048,0.831,0.196c0.487,0.202,0.942,0.557,1.371,0.907
		c0.747,0.608,1.027,1.348,0.446,1.467c-0.58,0.118-0.97-0.317-1.44-0.67c-0.47-0.352-1.408-0.65-1.281-0.091
		c0.548,0.767,3.148,1.691,3.649,1.817c0.5,0.126,0.592,0.294,0.592,0.294c0.062,0.303,2.075,1.402,3.659,2.888"/>
	<path fill="none" stroke="#FAA82C" stroke-width="0.5" stroke-miterlimit="10" d="M73.337-10.412
		c-1.003-0.146-1.894,0.282-1.991,0.957"/>
	<path fill="none" stroke="#FAA82C" stroke-width="0.5" stroke-miterlimit="10" d="M66.577-0.134
		C65.294-0.321,64.215-0.172,64.16,0.2"/>
</g>
<g>
	<circle fill="#FFFFFF" stroke="#000000" stroke-width="2" stroke-miterlimit="10" cx="-194.171" cy="-5.925" r="11.659"/>
	<g>
		<path fill="#FAA82C" d="M-187.288-2.3c-0.856,0.168-1.762,0.134-2.297,0.134c-1.602,0-4.973,0-4.973,0v-2.006
			c0,0,0.342-3.598,0.448-5.428c2.059-0.096,3.729-0.188,6.821,1.395"/>
		<path fill="#FAA82C" d="M-195.214-2.163v-2.08l0.292-2.494l-4.3-0.091c0,0-0.326,1.626-0.148,2.697
			c0.05,1.012,0.15,1.688,0.15,1.688L-195.214-2.163z"/>
		<path fill="#FAA82C" d="M-199.114-7.222l4.192,0.091l0.264-2.361c0,0-2.954-0.203-4.156,0.359
			C-199.114-8.403-199.114-7.222-199.114-7.222z"/>
	</g>
	<path d="M-187.288-10.677c-2.178-0.566-4.734-0.875-6.437-0.883c-1.176-0.005-3.104,0.436-4.638,0.854
		c-0.666,0.173-2.527,1.061-2.441,2.194c0.094,1.248,1.866,0.163,2.512,0.035c0.055-0.011,2.722-0.415,2.76-0.425
		c-0.909-0.047-6.027,2.247-4.954,3.503c0.767,0.898,3.314-0.506,3.314-0.506s2.076-0.267,3.161-0.272
		c1.475-0.008,2.024-0.21,3.539,0.272c2.628,0.838,3.528,0.715,2.269,1.471c-1.28,0.768-1.954,1.426-3.722,1.343
		c-1.674-0.079-4.346-0.169-3.333,1.276c1.484,0.975,5.146,1.132,7.971,1.055"/>
	<path fill="none" stroke="#FAA82C" stroke-miterlimit="10" d="M-200.097-7.257c-0.901-0.146-1.799,0.009-2.654,0.417"/>
</g>
<g>
	<circle fill="#FFFFFF" stroke="#000000" stroke-width="2" stroke-miterlimit="10" cx="-116.67" cy="24.767" r="11.659"/>
	<g>
		<path fill="#FAA82C" d="M-109.787,28.392c-0.856,0.168-1.762,0.134-2.297,0.134c-1.602,0-4.973,0-4.973,0V26.52
			c0,0,0.342-3.598,0.448-5.428c2.059-0.096,3.729-0.188,6.821,1.395"/>
		<path fill="#FAA82C" d="M-117.713,28.529v-2.08l0.292-2.494l-4.3-0.091c0,0-0.326,1.626-0.148,2.697
			c0.05,1.012,0.15,1.688,0.15,1.688L-117.713,28.529z"/>
		<path fill="#FAA82C" d="M-121.613,23.469l4.192,0.091l0.264-2.361c0,0-2.954-0.203-4.156,0.359
			C-121.613,22.288-121.613,23.469-121.613,23.469z"/>
	</g>
	<path d="M-109.787,20.014c-2.178-0.566-4.734-0.875-6.437-0.883c-1.176-0.005-3.104,0.436-4.638,0.854
		c-0.666,0.173-2.527,1.061-2.441,2.194c0.094,1.248,1.866,0.163,2.512,0.035c0.055-0.011,2.722-0.415,2.76-0.425
		c-0.909-0.047-6.027,2.247-4.954,3.503c0.767,0.898,3.314-0.506,3.314-0.506s2.076-0.267,3.161-0.272
		c1.475-0.008,2.024-0.21,3.539,0.272c2.628,0.838,3.528,0.715,2.269,1.471c-1.28,0.768-1.954,1.426-3.722,1.343
		c-1.674-0.079-4.346-0.169-3.333,1.276c1.484,0.975,5.146,1.132,7.971,1.055"/>
	<path fill="none" stroke="#FAA82C" stroke-miterlimit="10" d="M-122.596,23.435c-0.901-0.146-1.799,0.009-2.654,0.417"/>
</g>
<g>
	<circle fill="#FFFFFF" stroke="#000000" stroke-width="2" stroke-miterlimit="10" cx="-28.323" cy="34.674" r="14.895"/>
	<circle fill="none" stroke="#000000" stroke-width="2" stroke-miterlimit="10" cx="-34.451" cy="33.527" r="4.472"/>
	<path d="M-17.774,33.493c-0.354-0.176-0.776-0.382-1.304-0.641c-1.338-2.179-6.444-4.94-9.22-6.432
		c-2.776-1.491-8.482-1.671-8.992-0.78c-0.47,0.821,1.414,1.455,2.144,1.62c0.062,0.014,3.732,0.203,3.775,0.21
		c-0.924-0.44-7.165-1.346-6.616,0.273c0.392,1.157,3.921,1.226,3.921,1.226c0,0,1.49,0.151,2.621,0.619
		c1.537,0.639,2.971,1.757,4.327,2.861c2.354,1.917,2.011,3.85,0.493,4.942c-1.904,0.377-4.558,0.836-4.558,0.836
		s-5.172-0.903-4.772,0.862c1.727,2.418,11.587,0.921,13.167,1.317c1.58,0.395,1.868,0.926,1.868,0.926
		c0.317,0.494,1.319,0.693,3.154,1.708"/>
	<g>
		<path d="M-32.617,32.023c-0.111,0.251-0.36,0.428-0.652,0.428c-0.394,0-0.714-0.32-0.714-0.715c0-0.189,0.076-0.358,0.197-0.486
			c-0.212-0.062-0.433-0.105-0.666-0.105c-1.316,0-2.383,1.066-2.383,2.384c0,1.314,1.066,2.382,2.383,2.382
			c1.316,0,2.382-1.067,2.382-2.382C-32.069,32.953-32.279,32.435-32.617,32.023z"/>
	</g>
</g>
</svg>
