<?xml version="1.0" encoding="utf-8"?>
<!-- Generator: Adobe Illustrator 16.0.0, SVG Export Plug-In . SVG Version: 6.00 Build 0)  -->
<!DOCTYPE svg PUBLIC "-//W3C//DTD SVG 1.1//EN" "http://www.w3.org/Graphics/SVG/1.1/DTD/svg11.dtd">
<svg version="1.1" id="Layer_1" xmlns="http://www.w3.org/2000/svg" xmlns:xlink="http://www.w3.org/1999/xlink" x="0px" y="0px"
	 width="146.575px" height="92.068px" viewBox="0 0 146.575 92.068" enable-background="new 0 0 146.575 92.068"
	 xml:space="preserve">
<g>
	<path fill="#FBA92C" d="M29.96,78.026c0,0,0.681-6.375,0.891-9.617c4.584-0.188,8.202-0.371,15.902,3.611
		c6.106,10.088-3.717,9.558-6.903,9.558s-9.89,0-9.89,0V78.026z"/>
	<path fill="#FBA92C" d="M28.656,81.583v-3.685l0.581-4.418l-8.55-0.161c0,0-0.648,2.881-0.294,4.778
		c0.1,1.792,0.299,2.99,0.299,2.99L28.656,81.583z"/>
	<path fill="#FBA92C" d="M20.9,72.621l8.336,0.161l0.524-4.183c0,0-5.874-0.359-8.263,0.636C20.9,70.53,20.9,72.621,20.9,72.621z"/>
</g>
<g>
	<path fill="#FBA92C" d="M34.436,39.264c0,0,0.68-6.374,0.891-9.615c4.584-0.189,8.202-0.373,15.901,3.61
		c6.107,10.089-3.717,9.558-6.903,9.558s-9.89,0-9.89,0V39.264z"/>
	<path fill="#FBA92C" d="M33.131,42.82v-3.684l0.581-4.418l-8.55-0.161c0,0-0.649,2.881-0.294,4.779
		c0.1,1.792,0.298,2.989,0.298,2.989L33.131,42.82z"/>
	<path fill="#FBA92C" d="M25.376,33.859l8.336,0.162l0.524-4.182c0,0-5.874-0.36-8.264,0.635
		C25.376,31.768,25.376,33.859,25.376,33.859z"/>
</g>
<path d="M135.035,39.104c-2.986-0.255-16.527,19.569-21.106,25.532c-7.367-1.207-41.814,4.81-41.814,4.81
	s-10.155-1.812-15.332-1.812c-3.783-2.39-13.938-2.788-19.45-2.987c-5.512-0.199-14.998,2.19-15.11,3.982s3.954,1.102,4.892,0.816
	c-1.792,0.021-6.969,4.958-3.982,4.759s6.571-2.588,6.571-2.588s8.96,0.397,14.137,1.593c5.177,1.194,8.363,4.182,5.775,6.182
	c-2.589,2.001-5.576,0.787-8.762,0.189c-3.186-0.597-8.562,0.199-6.571,2.665c4.58,2.468,19.713,0.721,22.5,0.123
	s10.354,1.194,10.354,1.194s46.195,4.182,54.957-1.991c6.907,0.179,13.006-10.384,13.006-10.384"/>
<path d="M106.218,57.776c0.783-1.275-5.014-5.924-14.724-7.845c-14.444-4.79-18.429-6.555-19.707-7.618
	c-9.55-5.377-7.539-4.615-13.952-6.611c-2.902-3.406-12.48-6.804-17.684-8.633c-5.202-1.828-14.971-2.366-15.61-0.688
	c-0.59,1.547,2.838,2.134,4.145,2.222c0.111,0.008,6.359,1.112,6.436,1.113c-1.717-0.513-12.755-0.395-11.369,2.259
	c0.99,1.897,7.112,1.062,7.112,1.062s2.619-0.144,4.7,0.363c2.83,0.689,5.613,2.236,8.257,3.78c4.588,2.679,6.742,6.478,3.676,7.619
	c-3.065,1.14-5.557-0.906-8.421-2.423s-8.235-2.354-7.067,0.592c3.64,3.716,18.609,6.545,21.448,6.804
	c2.84,0.259,3.481,1.099,3.481,1.099c0.597,1.601,10.206,4.406,20.107,11.154C77.045,62.024,97.377,58.096,106.218,57.776z"/>
<path fill="none" stroke="#FBA92C" stroke-miterlimit="10" d="M23.421,33.799c-7.404-1.078-14.698,6.998-16.307,18.052"/>
<g>
	<path fill="#FBA92C" d="M67.669,22.654c0,0,0.681-6.374,0.892-9.615c4.584-0.189,8.201-0.373,15.901,3.61
		c6.107,10.089-3.718,9.558-6.904,9.558s-9.889,0-9.889,0V22.654z"/>
	<path fill="#FBA92C" d="M66.365,26.211v-3.684l0.581-4.418l-8.551-0.161c0,0-0.648,2.881-0.294,4.779
		c0.1,1.792,0.299,2.989,0.299,2.989L66.365,26.211z"/>
	<path fill="#FBA92C" d="M58.609,17.25l8.337,0.162l0.524-4.182c0,0-5.874-0.36-8.263,0.635
		C58.609,15.159,58.609,17.25,58.609,17.25z"/>
</g>
<path d="M123,42.125c-2.288-1.504-7.792-6.219-10.179-7.728c-2.706-2.135-2.744-1.51-3.843-2.757
	c-8.605-6.787-6.735-5.723-12.766-8.686c-2.341-3.812-11.28-8.647-16.139-11.258c-4.859-2.609-14.426-4.648-15.318-3.089
	c-0.822,1.438,2.475,2.546,3.752,2.835c0.108,0.024,6.111,2.08,6.186,2.092c-1.617-0.771-12.541-2.357-11.581,0.478
	c0.686,2.027,6.863,2.146,6.863,2.146c0.001,0,2.609,0.263,4.587,1.083c2.69,1.118,5.201,3.075,7.574,5.009
	c4.121,3.355,5.664,7.44,2.457,8.095c-3.205,0.653-5.351-1.752-7.946-3.694c-2.596-1.941-7.772-3.597-7.073-0.505
	c3.022,4.232,17.375,9.338,20.141,10.032c2.765,0.693,3.27,1.622,3.27,1.622c0.341,1.674,11.452,7.741,20.193,15.937"/>
<path fill="none" stroke="#FBA92C" stroke-miterlimit="10" d="M56.654,17.19c-5.535-0.806-10.452,1.557-10.993,5.282"/>
<path fill="none" stroke="#FBA92C" stroke-miterlimit="10" d="M19.336,73.92C12.263,72.89,6.299,73.714,6,75.763"/>
</svg>
