<?xml version="1.0" encoding="utf-8"?>
<!-- Generator: Adobe Illustrator 16.0.0, SVG Export Plug-In . SVG Version: 6.00 Build 0)  -->
<!DOCTYPE svg PUBLIC "-//W3C//DTD SVG 1.1//EN" "http://www.w3.org/Graphics/SVG/1.1/DTD/svg11.dtd">
<svg version="1.1" id="Layer_1" xmlns="http://www.w3.org/2000/svg" xmlns:xlink="http://www.w3.org/1999/xlink" x="0px" y="0px"
	 width="39.008px" height="32.458px" viewBox="0 0 39.008 32.458" enable-background="new 0 0 39.008 32.458" xml:space="preserve">
<circle fill="none" stroke="#000000" stroke-width="2" stroke-miterlimit="10" cx="9.804" cy="15.801" r="7.828"/>
<path d="M38.996,15.743c-0.62-0.308-1.358-0.667-2.283-1.122c-2.341-3.812-11.28-8.647-16.139-11.258
	C15.714,0.754,5.726,0.439,4.834,1.999C4.012,3.436,7.309,4.544,8.586,4.833c0.108,0.024,6.533,0.356,6.608,0.368
	C13.577,4.43,2.653,2.844,3.613,5.68c0.686,2.027,6.863,2.146,6.863,2.146c0.001,0,2.609,0.263,4.587,1.083
	c2.69,1.118,5.201,3.075,7.574,5.009c4.121,3.355,3.52,6.739,0.863,8.65c-3.333,0.661-7.979,1.464-7.979,1.464
	s-9.054-1.582-8.354,1.51c3.022,4.232,20.283,1.61,23.049,2.304c2.765,0.693,3.27,1.622,3.27,1.622
	c0.555,0.865,2.31,1.213,5.521,2.99"/>
<g>
	<path d="M13.016,13.169c-0.194,0.439-0.63,0.747-1.141,0.747c-0.69,0-1.25-0.56-1.25-1.25c0-0.331,0.134-0.628,0.344-0.851
		c-0.372-0.109-0.758-0.186-1.165-0.186c-2.304,0-4.171,1.867-4.171,4.171c0,2.303,1.867,4.17,4.171,4.17s4.17-1.867,4.17-4.17
		C13.975,14.797,13.606,13.889,13.016,13.169z"/>
</g>
</svg>
